<?xml version="1.0" standalone="no"?>
<!DOCTYPE svg PUBLIC "-//W3C//DTD SVG 20010904//EN"
 "http://www.w3.org/TR/2001/REC-SVG-20010904/DTD/svg10.dtd">
<svg version="1.0" xmlns="http://www.w3.org/2000/svg"
 width="1240.000000pt" height="1240.000000pt" viewBox="0 0 1240.000000 1240.000000"
 preserveAspectRatio="xMidYMid meet">

<g transform="translate(0.000000,1240.000000) scale(0.100000,-0.100000)"
fill="#000000" stroke="none">
<path d="M3670 11499 c-311 -40 -621 -176 -777 -342 -62 -66 -103 -141 -86
-158 9 -9 32 8 92 69 58 58 104 94 168 128 184 101 357 159 543 184 104 15
370 15 465 1 232 -34 481 -102 561 -153 112 -71 270 -233 422 -435 55 -72 86
-103 106 -103 3 0 6 19 6 42 0 70 -85 206 -254 403 -138 162 -228 222 -406
273 -118 34 -333 76 -460 92 -98 12 -286 11 -380 -1z"/>
<path d="M2485 10828 c-51 -28 -149 -141 -230 -266 -199 -309 -356 -887 -395
-1459 -9 -120 -9 -181 0 -235 15 -102 65 -292 94 -363 26 -66 26 -75 -7 -75
-12 0 -45 -13 -73 -29 -128 -74 -178 -267 -126 -482 33 -138 114 -263 195
-306 71 -37 190 -33 272 8 25 12 46 21 48 18 2 -2 20 -53 40 -114 56 -170 106
-277 217 -471 119 -208 149 -249 264 -363 77 -76 84 -87 79 -115 -3 -17 5
-114 17 -216 36 -301 17 -469 -72 -628 -56 -101 -141 -184 -261 -255 -53 -32
-97 -65 -97 -73 0 -41 157 14 268 95 78 57 187 253 219 391 31 139 22 396 -24
640 l-6 34 85 -74 c95 -84 263 -177 408 -228 47 -16 115 -42 150 -57 63 -27
69 -27 185 -21 66 3 140 11 165 16 100 23 408 192 482 263 26 26 89 70 93 65
2 -2 -2 -28 -10 -58 -17 -66 -51 -335 -60 -475 -12 -176 17 -390 67 -495 41
-86 209 -240 262 -240 33 0 23 23 -39 90 -60 67 -82 101 -52 84 6 -4 47 -32
90 -62 94 -67 99 -88 33 -127 -49 -29 -181 -81 -301 -118 -284 -89 -531 -125
-925 -134 -491 -11 -842 40 -1088 158 -163 79 -219 141 -209 232 8 63 43 122
110 183 70 64 139 98 267 131 58 14 111 31 118 37 21 16 -14 36 -63 36 -54 0
-223 -43 -269 -69 -29 -17 -40 -19 -55 -9 -15 9 -34 1 -117 -49 -54 -33 -225
-123 -379 -200 -154 -77 -316 -160 -360 -185 -104 -59 -245 -130 -359 -180
-50 -22 -109 -48 -131 -58 -22 -10 -69 -30 -105 -45 -64 -26 -200 -93 -277
-136 -146 -81 -453 -271 -528 -327 -77 -58 -90 -72 -93 -99 -4 -36 8 -42 29
-17 19 23 196 141 294 196 164 93 485 257 630 322 248 112 451 213 612 302 83
46 198 106 255 133 57 26 165 83 241 125 76 43 141 76 143 73 2 -2 -7 -24 -20
-48 -79 -142 -46 -274 91 -365 123 -82 266 -134 472 -174 241 -46 364 -55 731
-54 507 0 704 29 1100 160 122 40 212 79 295 129 l30 18 75 -45 c124 -75 216
-124 400 -215 96 -48 234 -123 305 -168 252 -159 327 -197 340 -175 7 11 -40
57 -96 95 -24 17 -113 79 -199 139 -87 62 -223 146 -310 191 -379 199 -480
257 -480 275 0 41 -186 164 -334 221 -69 26 -72 28 -88 75 -21 64 -38 205 -38
324 0 120 34 467 55 555 8 36 15 77 15 91 0 16 20 46 58 87 31 34 68 78 82 97
13 19 68 89 120 155 141 175 220 318 299 540 l39 110 43 3 c118 7 204 58 296
173 71 90 95 132 133 229 69 179 29 324 -92 337 -49 6 -133 -24 -164 -58 -9
-10 -20 -19 -24 -19 -4 0 -10 36 -14 79 -9 106 -42 289 -61 334 -18 44 -31 53
-52 36 -21 -18 -13 -89 36 -334 l38 -190 28 2 c16 1 33 9 37 17 17 30 93 66
140 66 36 0 49 -5 61 -23 29 -44 29 -81 2 -163 -37 -110 -92 -199 -173 -277
-86 -83 -158 -118 -254 -125 -60 -4 -68 -7 -68 -25 0 -11 8 -30 19 -41 18 -21
18 -23 -33 -131 -85 -183 -177 -341 -255 -438 -40 -51 -107 -136 -148 -191
-90 -120 -133 -162 -290 -290 -90 -73 -156 -117 -261 -171 -160 -85 -178 -90
-328 -105 -91 -9 -117 -9 -150 3 -235 86 -367 148 -488 231 -65 44 -380 358
-418 416 -140 216 -273 474 -342 661 -42 112 -45 126 -34 156 16 44 3 57 -47
47 -24 -4 -39 -13 -42 -25 -6 -23 -74 -50 -146 -56 -81 -8 -125 14 -175 86
-61 87 -94 196 -96 311 0 87 2 101 30 161 28 58 38 69 80 90 63 30 168 38 212
15 38 -19 62 -21 62 -3 0 23 -38 54 -87 72 -75 26 -76 28 -100 106 -82 268
-86 575 -13 1005 66 389 165 708 290 942 47 86 148 232 197 283 47 49 39 95
-12 67z"/>
<path d="M4925 10689 c-7 -11 4 -26 71 -95 123 -127 300 -382 374 -539 66
-140 95 -236 127 -415 25 -144 27 -175 28 -440 0 -255 -3 -308 -28 -505 -37
-286 -42 -351 -29 -359 14 -8 45 52 60 114 20 80 61 351 77 504 28 278 18 512
-35 777 -46 232 -106 376 -239 576 -114 173 -193 266 -294 347 -56 44 -98 58
-112 35z"/>
<path d="M8620 10184 c-190 -13 -526 -76 -678 -128 -260 -90 -363 -157 -330
-218 13 -25 33 -22 83 12 163 112 752 221 1114 207 171 -7 486 -47 586 -75
108 -30 388 -138 510 -197 138 -67 370 -219 439 -288 57 -57 121 -149 208
-297 66 -114 226 -405 260 -475 43 -86 116 -276 142 -370 57 -201 119 -572
146 -870 6 -66 20 -199 30 -295 49 -440 72 -1038 50 -1310 -24 -298 -44 -737
-60 -1290 -14 -477 -25 -635 -75 -1095 -25 -220 -48 -458 -51 -530 -15 -286
-30 -173 -39 296 -5 281 -27 672 -45 834 -16 135 -57 344 -97 489 -58 214
-145 398 -191 404 -33 5 -29 -37 13 -144 19 -49 48 -138 64 -199 113 -429 132
-629 166 -1735 8 -261 19 -524 25 -584 20 -202 66 -399 123 -526 75 -168 215
-443 272 -536 37 -60 97 -158 133 -219 145 -243 241 -366 336 -429 30 -20 57
-36 60 -36 14 0 4 20 -22 46 -45 45 -150 171 -162 194 -14 25 -6 25 30 0 35
-25 130 -70 148 -70 23 0 0 25 -93 102 -198 164 -290 295 -408 583 -159 388
-222 676 -234 1060 -7 247 16 588 72 1050 39 319 56 623 85 1475 6 168 20 449
31 625 18 271 20 376 15 685 -6 368 -13 487 -61 995 -78 842 -149 1151 -352
1535 -288 545 -340 629 -450 731 -85 79 -292 214 -452 295 -149 75 -507 210
-621 233 -183 36 -589 73 -720 65z"/>
<path d="M4016 9701 c-6 -10 264 -276 383 -378 67 -57 101 -76 101 -55 0 9
-385 391 -424 420 -31 23 -51 28 -60 13z"/>
<path d="M4490 9680 c0 -16 96 -168 120 -190 32 -30 187 -284 265 -436 73
-143 142 -354 190 -589 25 -116 37 -147 52 -131 15 15 2 148 -26 279 -31 138
-107 384 -146 474 -69 155 -317 519 -407 596 -27 23 -48 22 -48 -3z"/>
<path d="M4422 9513 c121 -221 133 -221 19 1 -62 122 -77 146 -92 146 -4 0 29
-66 73 -147z"/>
<path d="M3307 9644 c-11 -11 20 -59 65 -100 64 -60 259 -185 384 -248 126
-63 219 -92 260 -81 27 7 25 9 -33 25 -137 38 -446 222 -586 349 -67 60 -78
67 -90 55z"/>
<path d="M2950 9597 c0 -45 32 -101 120 -208 138 -168 273 -279 340 -279 28 0
17 16 -26 36 -79 38 -303 293 -374 427 -35 65 -60 75 -60 24z"/>
<path d="M3170 9578 c0 -25 82 -168 135 -236 56 -72 134 -151 166 -167 16 -9
29 -13 29 -9 0 4 -19 30 -43 58 -75 89 -132 168 -196 274 -61 99 -91 125 -91
80z"/>
<path d="M3680 9579 c0 -16 103 -120 185 -186 63 -51 165 -113 185 -112 13 0
13 1 0 6 -49 19 -185 127 -292 232 -43 42 -78 69 -78 60z"/>
<path d="M2669 9564 c-24 -29 -12 -115 30 -228 76 -203 137 -289 220 -314 24
-7 45 -11 47 -10 1 2 -6 23 -16 46 -43 95 -76 402 -51 472 9 26 8 35 -1 41
-18 12 -47 -8 -55 -39 -18 -62 -1 -269 32 -402 l6 -25 -23 28 c-43 50 -119
256 -140 380 -12 68 -24 81 -49 51z"/>
<path d="M7115 9519 c-58 -39 -104 -83 -184 -177 -138 -161 -180 -223 -247
-359 -103 -212 -134 -336 -268 -1064 -69 -375 -110 -709 -137 -1134 -8 -119
-10 -430 -8 -920 5 -882 2 -1157 -11 -1410 -12 -218 -44 -610 -65 -800 -8 -71
-24 -211 -35 -310 -11 -99 -22 -191 -25 -205 -9 -43 -45 -396 -59 -590 -41
-522 -46 -1196 -12 -1435 73 -502 148 -828 243 -1053 l26 -62 42 0 43 0 -30
72 c-83 204 -165 575 -220 993 -39 305 -28 1146 22 1685 10 102 17 173 60 545
108 945 124 1272 115 2295 -10 1191 18 1616 161 2380 160 856 203 970 520
1371 64 81 156 161 187 163 18 1 22 7 22 31 0 26 -4 30 -31 33 -23 2 -49 -9
-109 -49z"/>
<path d="M2626 9338 c-44 -25 -164 -326 -216 -543 -81 -338 -104 -515 -69
-523 21 -4 33 27 64 168 61 277 124 496 219 762 34 96 42 129 33 136 -8 7 -18
7 -31 0z"/>
<path d="M9342 8358 c-7 -7 -12 -16 -12 -22 0 -5 47 -106 104 -225 137 -287
159 -343 306 -781 94 -281 130 -376 142 -378 31 -6 32 43 4 159 -40 159 -139
484 -230 747 -52 152 -191 407 -264 485 -29 31 -33 32 -50 15z"/>
<path d="M9805 8329 c-10 -16 2 -52 67 -204 206 -479 336 -990 458 -1802 25
-163 22 -188 -35 -358 -19 -55 -59 -181 -90 -279 -31 -98 -72 -210 -92 -249
-59 -118 -161 -277 -242 -377 -42 -52 -99 -124 -126 -160 -100 -135 -220 -244
-345 -313 -200 -111 -590 -150 -820 -83 -190 55 -373 144 -510 247 -171 129
-250 221 -367 423 -36 61 -106 174 -158 251 -51 77 -107 169 -125 204 -29 59
-31 66 -16 77 15 10 13 17 -19 71 -79 132 -147 383 -221 813 -23 133 -27 193
-31 423 -7 371 9 616 31 479 14 -90 82 -226 209 -417 204 -309 387 -481 499
-473 24 2 42 8 42 13 -1 6 -25 24 -53 40 -29 17 -75 50 -102 74 -154 132 -400
501 -489 731 -33 87 -70 254 -70 320 0 61 -11 75 -37 49 -6 -6 -21 -16 -34
-23 -46 -23 -71 -165 -90 -511 -18 -332 -4 -513 72 -870 17 -82 32 -181 34
-220 4 -100 39 -269 73 -350 113 -269 139 -321 242 -475 42 -63 115 -180 162
-260 118 -199 198 -295 338 -407 127 -102 230 -165 362 -219 l86 -36 31 -87
c45 -125 81 -315 88 -466 l6 -130 -59 -1 c-72 0 -150 -37 -190 -89 -15 -21
-35 -35 -48 -35 -11 0 -54 -25 -95 -56 -41 -30 -104 -70 -141 -89 -95 -48
-261 -116 -270 -110 -4 2 -10 41 -13 86 -4 45 -9 84 -12 87 -14 14 -24 -21
-30 -103 -4 -52 -14 -104 -23 -123 -14 -27 -15 -34 -3 -41 10 -7 13 -33 12
-107 -2 -133 -27 -477 -51 -709 -11 -104 -31 -347 -45 -540 -14 -192 -29 -408
-35 -480 -38 -504 -42 -585 -37 -807 4 -226 24 -404 67 -605 l12 -53 44 0 c32
0 44 4 44 15 0 8 -11 84 -25 170 -14 86 -30 216 -36 288 -12 139 -6 518 11
752 5 72 17 238 25 370 9 132 29 422 45 645 37 497 50 741 50 930 l0 145 83
23 c130 37 270 111 354 187 39 36 73 65 76 65 2 0 9 -25 16 -55 34 -153 217
-226 571 -227 242 0 424 21 655 79 267 66 564 204 711 330 62 53 102 157 88
229 -10 52 5 49 205 -50 114 -56 265 -116 294 -116 21 0 30 16 22 39 -16 51
-282 173 -489 226 -50 13 -113 33 -140 45 -28 11 -82 24 -120 28 l-71 7 -32
60 c-66 122 -135 393 -146 576 l-6 87 107 134 c192 240 270 388 378 718 42
129 80 239 84 243 11 13 18 -25 30 -183 7 -80 16 -152 20 -159 12 -22 29 48
37 144 6 92 -13 360 -29 389 -6 11 -14 65 -19 120 -12 159 -28 304 -44 396 -8
47 -35 209 -59 360 -49 297 -67 377 -146 630 -132 421 -309 765 -355 689z
m-78 -3686 c0 -196 62 -415 157 -557 80 -120 165 -209 214 -225 75 -25 82 6
17 79 -47 53 -70 89 -61 97 6 6 102 -45 117 -63 22 -27 21 -79 -1 -128 -47
-100 -191 -184 -505 -296 -217 -77 -739 -136 -1003 -112 -154 14 -227 37 -271
88 -68 77 -23 154 117 198 22 7 22 5 22 -98 0 -137 11 -165 45 -113 22 35 67
339 60 406 -18 159 -74 390 -111 462 -7 15 -11 29 -8 32 3 3 29 -1 57 -9 29
-7 109 -19 179 -26 351 -33 649 67 898 300 36 34 67 61 71 62 3 0 5 -44 6 -97z"/>
<path d="M2111 8135 c-38 -33 -55 -83 -46 -138 9 -51 20 -74 53 -109 29 -31
81 -38 101 -14 10 12 7 18 -18 30 -46 24 -61 53 -61 118 0 49 4 62 30 91 16
19 27 37 23 41 -14 14 -53 5 -82 -19z"/>
<path d="M8547 8054 c-24 -25 11 -214 63 -335 80 -188 313 -531 466 -685 55
-55 146 -114 177 -114 35 0 15 35 -66 114 -147 143 -307 377 -429 627 -64 131
-79 167 -136 319 -20 56 -33 76 -48 78 -11 2 -23 0 -27 -4z"/>
<path d="M5277 8023 c-4 -3 0 -14 8 -23 8 -9 18 -44 21 -78 4 -34 11 -62 15
-62 13 0 22 67 15 108 -7 44 -40 75 -59 55z"/>
<path d="M7814 7856 c-7 -31 4 -66 78 -239 78 -184 119 -266 184 -363 67 -102
266 -319 390 -426 52 -45 91 -85 87 -89 -5 -5 -45 -12 -90 -17 -85 -10 -107
-17 -98 -33 10 -15 76 -10 154 11 70 20 76 20 117 4 43 -16 74 -14 74 5 0 6
-69 79 -153 163 -85 84 -179 185 -209 223 -77 96 -198 289 -308 491 -147 268
-165 294 -196 294 -17 0 -25 -7 -30 -24z"/>
<path d="M7452 4173 c-11 -26 -54 -307 -88 -563 -66 -509 -69 -527 -154 -990
-77 -418 -118 -708 -140 -994 -37 -469 30 -910 233 -1546 l24 -75 52 -3 c28
-2 51 0 51 4 0 4 -20 71 -44 148 -111 353 -167 629 -197 971 -13 143 -6 541
11 665 6 41 17 136 26 210 19 167 52 379 109 710 71 405 98 638 146 1225 17
209 3 319 -29 238z"/>
<path d="M11271 3686 c-10 -12 -3 -22 40 -56 74 -59 220 -143 368 -212 267
-125 344 -167 578 -315 73 -45 135 -83 139 -83 3 0 4 10 2 23 -3 22 -76 75
-273 198 -44 28 -132 84 -195 125 -63 41 -194 115 -290 163 -96 49 -211 107
-255 130 -88 45 -97 48 -114 27z"/>
<path d="M6804 3679 c-4 -6 -13 -102 -20 -213 -7 -110 -20 -250 -29 -311 -43
-288 -178 -897 -273 -1230 -50 -175 -96 -369 -119 -505 -26 -149 -26 -727 0
-940 19 -161 50 -335 74 -422 l16 -58 49 0 c42 0 49 2 44 18 -60 194 -101 628
-93 990 6 319 22 412 177 1037 119 485 194 881 221 1175 11 118 6 393 -7 447
-6 24 -28 31 -40 12z"/>
<path d="M2363 3308 c-12 -6 -27 -24 -34 -41 -11 -27 -10 -35 15 -82 17 -31
26 -59 22 -71 -7 -22 -45 -65 -78 -88 -12 -9 -19 -19 -15 -22 11 -11 93 63
107 95 11 27 9 35 -14 77 -14 26 -26 57 -26 69 0 23 28 55 48 55 6 0 14 5 17
10 8 13 -14 12 -42 -2z"/>
<path d="M2510 3290 l-55 -7 63 -1 c34 -1 62 -6 62 -11 0 -29 -54 -240 -66
-259 -9 -13 -13 -27 -9 -30 15 -15 36 39 67 169 22 97 37 140 47 142 24 7 -47
5 -109 -3z"/>
<path d="M2921 3238 c39 -124 41 -141 31 -248 -6 -62 -6 -109 -1 -115 6 -5 9
-1 9 10 0 11 7 78 15 149 15 137 21 151 80 187 21 14 25 19 12 19 -9 0 -38
-19 -62 -41 -31 -28 -46 -37 -49 -28 -3 8 -10 31 -16 51 -6 21 -15 40 -20 43
-5 3 -4 -9 1 -27z"/>
<path d="M2717 3159 c-27 -50 -47 -93 -44 -96 3 -2 10 5 17 16 9 17 20 21 60
21 46 0 49 -2 55 -30 4 -16 10 -30 14 -30 10 0 -10 77 -27 108 -7 13 -16 41
-20 62 l-7 39 -48 -90z m58 -37 c-11 -11 -55 -13 -55 -2 0 6 7 25 17 43 l16
32 14 -34 c8 -18 11 -36 8 -39z"/>
<path d="M4220 3233 c0 -5 13 -19 30 -31 16 -12 36 -35 44 -50 19 -37 3 -75
-58 -138 -51 -52 -54 -75 -5 -28 51 47 89 105 89 134 0 15 -9 39 -20 53 -25
31 -80 72 -80 60z"/>
<path d="M3157 3223 c-11 -19 -33 -222 -22 -212 7 8 37 211 31 216 -2 3 -6 1
-9 -4z"/>
<path d="M3357 3213 c-13 -13 -7 -114 9 -138 18 -28 116 -72 99 -45 -3 6 -14
10 -24 10 -9 0 -27 9 -40 21 -17 16 -20 24 -10 35 9 11 8 14 -5 14 -11 0 -16
9 -16 33 0 44 4 47 47 35 19 -5 37 -7 40 -4 3 2 -15 10 -38 16 -24 7 -47 16
-50 21 -3 5 -8 6 -12 2z"/>
<path d="M3205 3197 c20 -15 20 -16 -2 -39 -13 -14 -23 -34 -23 -45 0 -24 84
-103 109 -102 12 0 9 5 -9 17 -25 17 -90 80 -90 87 0 3 9 13 21 24 26 24 22
64 -6 69 l-20 4 20 -15z"/>
<path d="M3588 3148 c-47 -91 -99 -210 -95 -215 2 -2 17 22 33 54 l29 58 50 0
c47 0 50 -2 69 -37 11 -21 23 -38 28 -38 5 0 0 17 -11 39 -11 21 -17 42 -13
45 3 4 1 10 -5 14 -6 4 -18 23 -27 42 l-15 35 2 -40 c2 -38 1 -40 -30 -43 -42
-4 -42 6 1 86 19 34 30 62 25 62 -5 0 -23 -28 -41 -62z"/>
<path d="M3788 3168 c-3 -81 4 -153 17 -175 18 -27 112 -60 128 -44 8 8 5 11
-11 11 -12 0 -39 7 -61 16 -52 20 -66 59 -58 161 3 42 2 73 -4 73 -5 0 -10
-19 -11 -42z"/>
<path d="M4041 3125 c8 -7 108 -9 116 -2 3 4 -22 7 -57 7 -35 0 -61 -2 -59 -5z"/>
<path d="M3423 3103 c9 -2 25 -2 35 0 9 3 1 5 -18 5 -19 0 -27 -2 -17 -5z"/>
<path d="M4048 3063 c18 -2 45 -2 60 0 15 2 0 4 -33 4 -33 0 -45 -2 -27 -4z"/>
<path d="M10400 1832 c40 -39 45 -56 40 -122 -2 -34 -35 -107 -66 -148 -30
-39 -22 -59 8 -22 32 39 70 128 76 177 6 55 -21 119 -59 139 -43 22 -43 17 1
-24z"/>
<path d="M10233 1773 c-13 -2 -23 -10 -23 -18 0 -11 6 -10 33 2 49 24 47 27
-10 16z"/>
<path d="M9832 1743 c-14 -37 -21 -77 -38 -218 -8 -70 4 -68 17 2 6 30 17 54
32 65 30 24 34 23 53 -17 9 -20 19 -33 22 -31 6 7 -12 53 -49 129 -23 46 -27
63 -19 78 6 11 7 19 2 19 -5 0 -14 -12 -20 -27z m26 -125 c-26 -16 -39 -9 -32
20 12 56 15 58 30 23 12 -28 12 -36 2 -43z"/>
<path d="M9975 1761 c-7 -13 2 -90 17 -141 12 -41 33 -60 64 -60 28 0 74 20
74 32 0 5 -9 4 -20 -2 -12 -6 -35 -10 -53 -8 -40 4 -53 30 -63 118 -7 71 -9
77 -19 61z"/>
<path d="M9633 1720 c-13 -5 -23 -12 -23 -15 0 -4 10 -3 23 1 12 4 38 11 57
15 l35 7 -35 0 c-19 1 -45 -3 -57 -8z"/>
<path d="M9235 1671 c-17 -28 -33 -51 -37 -51 -4 0 -14 12 -22 28 -18 35 -52
66 -60 54 -3 -6 1 -12 9 -15 8 -4 27 -25 42 -49 22 -35 30 -66 44 -171 15
-119 29 -161 45 -144 4 4 2 12 -3 19 -6 7 -16 54 -22 103 -6 50 -14 106 -16
126 -4 28 2 46 26 82 17 26 29 52 27 57 -2 6 -17 -12 -33 -39z"/>
<path d="M9601 1630 c31 -118 48 -131 115 -89 49 30 42 42 -9 14 -48 -27 -67
-22 -70 20 -2 25 3 31 43 47 41 17 42 18 10 12 -19 -3 -45 -8 -58 -11 -13 -3
-22 -2 -21 3 5 15 -12 74 -21 74 -4 0 1 -31 11 -70z"/>
<path d="M10240 1685 c-16 -9 -19 -14 -9 -15 8 0 24 7 35 15 24 18 7 19 -26 0z"/>
<path d="M9430 1677 c44 -15 47 -33 15 -81 -14 -21 -24 -45 -21 -52 7 -19 49
-34 89 -33 29 1 27 2 -16 14 -27 7 -52 16 -55 20 -4 3 3 24 16 45 12 21 22 48
22 59 0 23 -28 41 -62 40 -18 0 -16 -3 12 -12z"/>
<path d="M9374 1605 c9 -103 19 -147 31 -143 6 2 8 8 6 13 -2 6 -10 53 -18
105 -8 52 -17 97 -20 100 -3 3 -2 -31 1 -75z"/>
<path d="M8982 1583 c-15 -38 -52 -174 -52 -192 0 -23 18 0 22 29 2 19 12 27
43 37 33 11 34 12 9 9 -18 -3 -34 -3 -37 0 -7 7 18 87 29 91 5 1 29 -24 53
-57 24 -34 46 -59 48 -56 6 5 -45 81 -77 114 -12 13 -19 30 -16 38 3 7 2 14
-3 14 -5 0 -13 -12 -19 -27z"/>
<path d="M8795 1570 c-48 -7 -48 -7 -11 -8 l38 -2 -7 -135 c-5 -96 -4 -135 4
-135 7 0 11 39 12 118 1 64 1 122 0 128 -2 14 18 30 44 37 30 7 -18 5 -80 -3z"/>
<path d="M8632 1538 c-28 -28 -7 -89 36 -102 33 -11 28 -49 -14 -96 -20 -22
-32 -40 -26 -40 18 0 82 80 82 103 0 16 -12 31 -37 48 -41 26 -53 58 -28 79
12 10 18 10 32 -1 14 -12 16 -12 11 1 -6 19 -40 24 -56 8z"/>
</g>
</svg>
